<svg xmlns="http://www.w3.org/2000/svg" viewBox="0 0 100 100">
  <defs>
    <linearGradient id="shieldGrad" x1="0%" y1="0%" x2="100%" y2="100%">
      <stop offset="0%" style="stop-color:#ff4d4d"/>
      <stop offset="100%" style="stop-color:#ff8c00"/>
    </linearGradient>
  </defs>
  <path d="M50 5 L90 20 L90 45 C90 70 70 90 50 95 C30 90 10 70 10 45 L10 20 Z" fill="url(#shieldGrad)"/>
  <path d="M50 15 L80 27 L80 45 C80 65 65 80 50 85 C35 80 20 65 20 45 L20 27 Z" fill="#1a1a2e"/>
  <circle cx="50" cy="45" r="15" fill="none" stroke="#ff4d4d" stroke-width="3"/>
  <circle cx="50" cy="45" r="5" fill="#ff4d4d"/>
  <path d="M50 30 L50 25 M50 60 L50 65 M35 45 L30 45 M65 45 L70 45" stroke="#ff8c00" stroke-width="2" stroke-linecap="round"/>
</svg>
